<svg width="96" height="95" viewBox="0 0 96 95" fill="none" xmlns="http://www.w3.org/2000/svg">
<path opacity="0.2" d="M12.1726 62.3542L30.8123 43.7145C31.0873 43.4394 31.4139 43.2213 31.7732 43.0724C32.1326 42.9236 32.5178 42.8469 32.9067 42.8469C33.2957 42.8469 33.6809 42.9236 34.0403 43.0724C34.3996 43.2213 34.7262 43.4394 35.0012 43.7145L51.5465 60.2598C51.8215 60.5348 52.148 60.753 52.5074 60.9018C52.8668 61.0507 53.2519 61.1273 53.6409 61.1273C54.0299 61.1273 54.4151 61.0507 54.7744 60.9018C55.1338 60.753 55.4603 60.5348 55.7354 60.2598L63.3946 52.6006C63.6696 52.3255 63.9961 52.1073 64.3555 51.9585C64.7149 51.8096 65.1001 51.733 65.489 51.733C65.878 51.733 66.2632 51.8096 66.6226 51.9585C66.9819 52.1073 67.3085 52.3255 67.5835 52.6006L83.2612 68.2783L83.2612 20.8859C83.2612 20.1003 82.9492 19.3469 82.3937 18.7914C81.8382 18.2359 81.0848 17.9238 80.2992 17.9238H15.1346C14.3491 17.9238 13.5957 18.2359 13.0402 18.7914C12.4847 19.3469 12.1726 20.1003 12.1726 20.8859V62.3542Z" fill="#B7BAC7"/>
<path d="M80.2992 17.9238H15.1346C13.4988 17.9238 12.1726 19.25 12.1726 20.8859V74.2023C12.1726 75.8382 13.4988 77.1644 15.1346 77.1644H80.2992C81.9351 77.1644 83.2612 75.8382 83.2612 74.2023V20.8859C83.2612 19.25 81.9351 17.9238 80.2992 17.9238Z" stroke="#B7BAC7" stroke-width="4.58636" stroke-linecap="round" stroke-linejoin="round"/>
<path d="M12.1726 62.354L30.8123 43.7144C31.0873 43.4393 31.4139 43.2211 31.7732 43.0723C32.1326 42.9234 32.5178 42.8468 32.9067 42.8468C33.2957 42.8468 33.6809 42.9234 34.0403 43.0723C34.3996 43.2211 34.7262 43.4393 35.0012 43.7144L51.5465 60.2596C51.8215 60.5347 52.148 60.7528 52.5074 60.9017C52.8668 61.0506 53.2519 61.1272 53.6409 61.1272C54.0299 61.1272 54.4151 61.0506 54.7744 60.9017C55.1338 60.7528 55.4603 60.5347 55.7354 60.2596L63.3946 52.6004C63.6696 52.3254 63.9961 52.1072 64.3555 51.9584C64.7149 51.8095 65.1001 51.7329 65.489 51.7329C65.878 51.7329 66.2632 51.8095 66.6226 51.9584C66.9819 52.1072 67.3085 52.3254 67.5835 52.6004L83.2612 68.2781" stroke="#B7BAC7" stroke-width="4.58636" stroke-linecap="round" stroke-linejoin="round"/>
<path d="M58.0842 41.6198C60.538 41.6198 62.5272 39.6306 62.5272 37.1768C62.5272 34.723 60.538 32.7338 58.0842 32.7338C55.6303 32.7338 53.6411 34.723 53.6411 37.1768C53.6411 39.6306 55.6303 41.6198 58.0842 41.6198Z" fill="#B7BAC7"/>
</svg>
